<svg xmlns="http://www.w3.org/2000/svg" version="1.1" xmlns:xlink="http://www.w3.org/1999/xlink" xmlns:svgjs="http://svgjs.dev/svgjs" width="1000" height="1000" viewBox="0 0 1000 1000"><rect width="1000" height="1000" fill="#1b4571"></rect><g transform="matrix(0.7,0,0,0.7,150.00006675720215,106.25)"><svg viewBox="0 0 320 360" data-background-color="#1b4571" preserveAspectRatio="xMidYMid meet" height="1125" width="1000" xmlns="http://www.w3.org/2000/svg" xmlns:xlink="http://www.w3.org/1999/xlink"><g id="tight-bounds" transform="matrix(1,0,0,1,-0.000030517578125,0)"><svg viewBox="0 0 320 360" height="360" width="320"><g><svg></svg></g><g><svg viewBox="0 0 320 360" height="360" width="320"><g><path xmlns="http://www.w3.org/2000/svg" d="M219.58 41.008c0.707 0 6.365 2.829 9.547 3.89-1.061 0.354-3.536-0.707-6.365-1.768 0.707 0 2.122 0.354 3.536 1.06-0.707-0.707-6.011-2.475-6.718-3.182M166.895 30.047c1.061-0.354 13.436 1.414 19.094 1.768 0.354-0.354-0.707-0.354-2.122-0.707 1.768-0.354 5.304 0.707 7.779 1.06-7.425 0.354-15.558-1.768-22.629-1.06-2.475 0-0.707-0.707-2.122-1.061M156.641 30.047c6.365 0 11.315 0 2.121 0.707-1.061-0.354-2.475-0.354-2.121-0.707M256.707 59.395c0.707 0 3.536 3.182 4.95 4.243-0.354 0.354-3.182-2.475-4.596-3.536 0.354 0.354 0 0-0.354-0.707M249.635 54.798c-2.829-2.475-3.889-2.475-4.243-3.889 2.475 1.414 4.243 2.829 4.243 3.889M204.022 32.522c0.354-0.354 1.061 0.354 2.829 0.707-2.122-0.354-1.768 0-1.061 0.707-2.475-0.354-3.182-0.707-2.475-1.414 1.414 0.707 1.768 0.354 0.707 0M103.602 36.765c0-0.354 1.414-1.061 2.475-1.414-1.061 0.707-0.707 1.061 1.061 0.353 0 0.354-2.122 1.061-3.536 1.768 0.707-0.354 1.414-1.414 0-0.707M211.094 28.986c-1.061 0.354-4.95-1.768-8.84-2.475-2.122-0.707 8.486 1.768 8.84 2.475M2.475 203.66c2.122 8.84 0.707 8.486 0 0M2.829 150.621c0.354-1.414 0.707-5.304 1.06-4.95-1.061 8.486-2.829 12.376-3.182 18.74 1.061-5.657-0.354 3.182-0.707 5.304 0.354 2.829 0.354-1.768 1.061-1.06 0.707 1.061-1.414 15.912-0.707 7.779-0.707 7.425 0 15.558 1.414 17.679-1.768 11.315 7.072 36.773 8.84 42.077 0.354 0.354 0-1.768 0.707-0.353 0.707 4.597 3.889 7.779 4.95 12.729 1.061 1.414 5.304 9.193 6.011 10.962 1.414 2.829 2.122 2.475 3.536 5.303 4.243 8.133 10.961 15.912 17.326 23.337 20.508 24.044 51.978 43.845 86.984 50.918 35.006 7.425 71.779 2.122 100.419-11.669 1.768-1.061 1.414-1.414 3.536-2.122 9.901-3.182 21.923-13.436 28.641-17.326 3.182-3.536 11.669-9.547 12.73-13.082 6.011-4.95 12.022-13.083 15.204-18.387 1.768-2.829 3.182-2.829 3.889-4.597-0.354 0 5.657-7.425 7.426-11.668-0.707 0-1.768 2.122-1.768 0 12.729-24.398 19.801-57.282 15.911-79.912 0.707 27.934-6.365 59.05-19.801 78.851-6.011 12.729-18.387 26.519-29.701 36.42-1.768 1.768-3.536 3.889-5.658 5.304-6.718 5.657-14.144 10.254-21.922 14.497-18.387 10.254-38.895 19.094-62.94 19.447 41.37-3.536 78.497-24.398 99.006-49.856-15.558 15.204-22.276 21.215-39.602 30.055-1.414 2.475-13.083 7.425-20.862 9.547 4.597-2.122 14.144-5.657 17.326-8.486-25.812 12.376-54.453 19.448-81.326 15.558 10.254 0 24.751 0.354 38.541-2.121 2.122-0.707 3.182-1.414 5.658-1.768 26.873-6.011 52.685-19.094 71.072-37.481-10.608 9.547-26.519 20.862-36.774 24.398 9.547-5.304 26.873-15.558 32.53-23.337-11.315 11.315-32.53 22.63-45.966 27.58-2.122 0.354 1.414-1.414-2.122 0-4.243 1.061-2.475 1.061-3.536 1.768-16.265 4.597-35.006 8.486-50.563 7.072-2.829-0.354-3.889-1.061-6.365-1.061-2.829-0.354-5.304-0.354-8.486-0.354-12.376-1.414-25.812-6.365-35.713-10.607-5.304-2.475-10.608-4.243-15.912-7.426-4.243-2.475-7.779-5.304-11.314-8.132-13.436-9.901-24.751-19.801-35.36-33.945-19.094-26.519-28.994-59.757-27.58-92.641 1.414-32.884 14.497-65.061 35.359-88.752-1.061 1.061 1.414-2.475 3.536-4.596 0 0.707-0.354 1.768 2.122-0.707 2.122-2.475-0.707-0.707 0.353-2.122 21.923-24.044 60.111-43.492 99.36-44.199 1.414-1.061 3.889-2.475 6.718-1.768 0 0.354-1.768 0.354-1.768 0.354 3.889-0.354 7.425-0.354 9.193 0.353 0.354-0.354-1.414-0.707 0-0.707 2.475 0.707 3.182 0 4.597 0.707-1.061 0-2.122 0-2.829 0.354 8.84 0 14.497 2.122 23.337 2.829-4.597-1.061-5.657-1.061-9.193-2.122 3.889 0.707 5.657 1.414 7.425 1.061-0.707 0-0.354-1.061 0.354-0.707 7.072 1.768 7.779 2.475 15.204 4.95 0.707-0.707-3.182-1.061-4.243-2.122 7.072 2.475 13.436 4.243 17.68 7.072-1.414-1.061-5.657-2.475-8.84-3.889-0.354 0.354 1.061 0.707 1.414 1.414-3.536-1.768-8.486-3.536-13.436-4.243 4.243 1.061 7.072 2.475 8.84 3.182-3.889-0.707-8.84-3.182-14.498-4.243 9.193 2.829 26.519 9.193 37.127 14.851-3.889-2.475-8.486-4.243-10.961-5.657 2.122 0.354 4.597 1.768 4.597 1.06 2.475 1.061 5.657 3.536 7.425 3.89-3.182-2.122-9.547-5.304-11.668-6.365 26.519 12.022 50.21 32.177 65.414 57.989 1.414 2.475 3.536 8.133 5.304 8.84-0.354-1.768-1.768-2.829-3.182-5.657 0.707 0 0.707-1.061 0-2.122-1.414-1.768 0 1.414-1.415-0.354-6.365-11.669-14.144-21.923-26.165-33.237 6.718 6.365 1.768 1.768 0.353-0.354 9.193 8.133 19.801 21.923 24.398 28.995-0.707-1.061-1.061-1.768-0.707-1.768 8.486 14.497 13.79 27.58 19.094 46.32 0.354 0.354 0-1.414 0.707-0.353 3.536 14.851 4.597 27.227 4.243 38.541 2.829-19.094-3.536-48.796-14.851-72.133-1.414-2.829-1.414-0.707-2.829-3.889 0-1.061-1.061-3.182-1.768-4.597-14.144-23.337-31.47-39.956-51.978-53.038 1.414 0.707 4.243 2.829 4.244 2.475-38.188-25.105-82.387-28.641-118.807-20.862-2.475 1.061-3.536 2.122-6.365 3.536 5.304-1.768 8.486-2.122 13.437-3.183 1.061-1.061-4.597 0.354-2.122-0.707 0.354 0.354 4.95-0.707 6.011-0.353 0 0.354-1.414 0.707-1.768 1.06 11.669-2.475 23.691-2.829 33.945-2.121-6.011 0.354-16.972-0.707-20.508 1.061 3.536-0.354 8.486-0.707 11.668-0.354-4.243 0-12.022 0.354-15.558 0.707-0.354-0.354 5.657-1.061 1.768-1.06-1.768 0.354-4.597 0.354-5.657 1.414-30.409 2.829-60.111 18.74-80.973 37.481-4.243 3.536-9.193 7.425-12.375 11.314-7.779 8.84-12.729 17.68-18.387 25.459 3.536-7.425 11.315-18.74 20.508-28.287 9.193-9.547 19.094-17.68 24.398-21.923 0 1.414 8.486-5.304 11.669-7.425-2.122 1.768 1.414-0.707 2.121-0.354 11.315-6.718 20.508-9.193 30.763-13.083-2.475 0.707-4.597 1.414-4.951 1.061 2.475-0.707 3.889-1.414 3.536-1.768-9.901 2.829-25.459 9.547-37.834 16.972 22.276-15.204 50.564-24.398 78.497-24.751 27.934-0.707 55.16 6.365 76.729 17.68 14.497 6.365 28.287 18.033 39.249 29.348 3.182 2.829 0.707-0.707 5.304 4.243-1.414-0.707-2.475-1.414-0.707 0.707 2.829 3.182-0.707-2.475 3.889 3.182-0.354 0-1.768-1.768-1.768-1.061 12.376 10.961 21.923 30.762 27.58 43.846-1.414-5.304-4.95-12.729-7.779-18.033 8.486 15.558 11.315 24.751 14.851 38.541 1.414 1.061-0.707-4.95 0.707-2.121 0.354 2.122 0.707 8.84 2.122 9.9-1.061-6.718-2.829-14.851-4.243-16.265 1.061 0.707-1.768-8.133-3.536-10.254-0.707-5.657-5.657-15.558-9.901-22.984-15.204-29.702-42.431-54.099-72.839-67.536 0-0.707-1.768-1.414-2.476-2.121-30.055-12.729-66.122-16.265-100.773-8.133-35.006 8.486-67.889 28.641-91.227 57.636 1.061-3.536 9.901-10.254 10.255-13.083-10.254 10.961-21.215 25.459-28.641 41.016-7.779 15.558-12.022 31.47-13.79 43.138" fill="#ffffff" fill-rule="nonzero" stroke="none" stroke-width="1" stroke-linecap="butt" stroke-linejoin="miter" stroke-miterlimit="10" stroke-dasharray="" stroke-dashoffset="0" font-family="none" font-weight="none" font-size="none" text-anchor="none" style="mix-blend-mode: normal" data-fill-palette-color="tertiary"></path></g><g transform="matrix(1,0,0,1,48,148.30776189559515)"><svg viewBox="0 0 224 63.384476208809694" height="63.384476208809694" width="224"><g><svg viewBox="0 0 295.30134767113805 83.56036270486915" height="63.384476208809694" width="224"><g><rect width="2.5630139203934426" height="72.55603129221633" x="62.028873226154474" y="5.502165706326409" fill="#ffffff" opacity="1" stroke-width="0" stroke="transparent" fill-opacity="1" class="rect-o-0" data-fill-palette-color="primary" rx="1%" id="o-0" data-palette-color="#ffffff"></rect></g><g transform="matrix(1,0,0,1,71.30134767113809,11.548501647344434)"><svg viewBox="0 0 224 60.46335941018028" height="60.46335941018028" width="224"><g id="textblocktransform"><svg viewBox="0 0 224 60.46335941018028" height="60.46335941018028" width="224" id="textblock"><g><svg viewBox="0 0 224 28.420765027322403" height="28.420765027322403" width="224"><g transform="matrix(1,0,0,1,0,0)"><svg width="224" viewBox="1.75 -36.150001525878906 292.7900085449219 37.150001525878906" height="28.420765027322403" data-palette-color="#ffffff"><path d="M35.1-32.65L35.1-32.65 51.45-5Q52.45-3.35 52.45-2.23 52.45-1.1 51.55-0.55 50.65 0 49.45 0L49.45 0 33.35 0Q30.9 0 30.2-0.9L30.2-0.9Q30-1.2 29.65-1.95L29.65-1.95 28.2-5.05Q27.55-6.5 25.15-6.7L25.15-6.7 15.7-6.7Q14.65-6.7 14.1-6.5 13.55-6.3 13.2-5.6L13.2-5.6 11.25-1.55Q10.75-0.65 10.15-0.33 9.55 0 8.4 0L8.4 0 3.9 0Q1.95 0 1.8-1.4L1.8-1.4Q1.75-1.6 1.75-1.8L1.75-1.8Q1.75-2.95 2.5-4L2.5-4 18.15-31.6Q20.4-35.5 25.45-35.5L25.45-35.5 29.45-35.5Q33.45-35.5 35.1-32.65ZM18.9-19.85L18.9-19.85 16.6-15.3Q16.4-14.85 16.4-14.5L16.4-14.5Q16.4-13.2 17.65-13.2L17.65-13.2 22.2-13.2Q23.25-13.2 23.65-13.73 24.05-14.25 24.05-14.65 24.05-15.05 23.9-15.45L23.9-15.45 22-19.75Q21.4-21.05 20.45-21.05 19.5-21.05 18.9-19.85ZM77.8-24.55L77.8-24.55 77.9-15.3Q77.9-14.35 78.95-14.35L78.95-14.35Q82.05-14.35 83.82-16.07 85.6-17.8 85.6-20.15 85.6-22.5 83.92-24.2 82.25-25.9 79-25.9L79-25.9Q77.8-25.9 77.8-24.55ZM90.9-9.6L90.9-9.6Q91.85-8.6 97.65-2.05L97.65-2.05Q98-1.6 98-1.25L98-1.25Q98 0.05 96.85 0.05L96.85 0.05Q94.2 0.1 91.52 0.1 88.85 0.1 86.2 0.05L86.2 0.05Q84.75 0.05 83.55-1.1L83.55-1.1 79.25-7.6Q79-7.9 78.65-8L78.65-8Q77.85-8.3 77.85-7.35L77.85-7.35 77.85-2.25Q77.85-0.1 75.02 0.05 72.2 0.2 68.85 0.2 65.5 0.2 60.75-0.05L60.75-0.05Q59.3-0.15 58.42-1.05 57.55-1.95 57.4-3.1L57.4-3.1Q57-7.5 57-16.93 57-26.35 57.3-30.65 57.6-34.95 61.65-35L61.65-35Q65.45-35.05 72-35.05 78.55-35.05 82.85-34.95L82.85-34.95Q89.05-34.85 93-30.35 96.95-25.85 96.95-20.2L96.95-20.2Q96.95-16.9 95.42-14.1 93.9-11.3 90.9-9.6ZM127.1 1L127.1 1Q121.05 1 116.15-0.58 111.25-2.15 108.2-4.8 105.15-7.45 103.55-10.73 101.95-14 101.95-17.55 101.95-21.1 103.57-24.38 105.2-27.65 108.22-30.3 111.25-32.95 116.15-34.55 121.05-36.15 126.9-36.15 132.75-36.15 137.25-34.7 141.75-33.25 144.5-30.75L144.5-30.75Q150.1-25.65 150.1-18.65L150.1-18.65Q150.1-15.1 148.57-11.7 147.05-8.3 144.22-5.53 141.4-2.75 136.94-0.98 132.5 0.8 127.1 1ZM137-18.43Q137-20.8 135.3-22.58 133.59-24.35 130.12-24.35 126.65-24.35 124.6-22.5 122.55-20.65 122.55-18 122.55-15.35 124.7-13.75 126.85-12.15 129.87-12.15 132.9-12.15 134.94-14.1 137-16.05 137-18.43ZM174.49-29.75L174.49-29.75 174.39-25.2 174.39-15.55Q174.39-13.45 175.69-12.3 176.99-11.15 178.74-11.15 180.49-11.15 181.77-12.3 183.04-13.45 183.04-15.55L183.04-15.55 183.04-30.45Q183.04-32.8 183.67-33.9 184.29-35 186.39-35L186.39-35 190.99-35Q192.59-35 193.19-34.05L193.19-34.05Q194.34-32.35 194.34-20.9L194.34-20.9Q194.34-17.15 194.24-15.15L194.24-15.15Q194.09-11.1 192.37-7.93 190.64-4.75 187.94-2.85L187.94-2.85Q182.49 1 175.59 1L175.59 1Q166.49 1 160.54-3.25L160.54-3.25Q157.54-5.4 155.82-8.97 154.09-12.55 154.04-17.3L154.04-17.3Q153.99-19.65 153.99-24.23 153.99-28.8 154.12-30.83 154.24-32.85 154.92-33.93 155.59-35 157.64-35L157.64-35 170.99-35Q172.99-35 173.64-33.95L173.64-33.95Q174.49-32.6 174.49-29.75ZM219.94-24.55L219.94-24.55 220.04-15.3Q220.04-14.35 221.09-14.35L221.09-14.35Q224.19-14.35 225.97-16.07 227.74-17.8 227.74-20.15 227.74-22.5 226.07-24.2 224.39-25.9 221.14-25.9L221.14-25.9Q219.94-25.9 219.94-24.55ZM233.04-9.6L233.04-9.6Q233.99-8.6 239.79-2.05L239.79-2.05Q240.14-1.6 240.14-1.25L240.14-1.25Q240.14 0.05 238.99 0.05L238.99 0.05Q236.34 0.1 233.67 0.1 230.99 0.1 228.34 0.05L228.34 0.05Q226.89 0.05 225.69-1.1L225.69-1.1 221.39-7.6Q221.14-7.9 220.79-8L220.79-8Q219.99-8.3 219.99-7.35L219.99-7.35 219.99-2.25Q219.99-0.1 217.17 0.05 214.34 0.2 210.99 0.2 207.64 0.2 202.89-0.05L202.89-0.05Q201.44-0.15 200.57-1.05 199.69-1.95 199.54-3.1L199.54-3.1Q199.14-7.5 199.14-16.93 199.14-26.35 199.44-30.65 199.74-34.95 203.79-35L203.79-35Q207.59-35.05 214.14-35.05 220.69-35.05 224.99-34.95L224.99-34.95Q231.19-34.85 235.14-30.35 239.09-25.85 239.09-20.2L239.09-20.2Q239.09-16.9 237.57-14.1 236.04-11.3 233.04-9.6ZM277.19-32.65L277.19-32.65 293.54-5Q294.54-3.35 294.54-2.23 294.54-1.1 293.64-0.55 292.74 0 291.54 0L291.54 0 275.44 0Q272.99 0 272.29-0.9L272.29-0.9Q272.09-1.2 271.74-1.95L271.74-1.95 270.29-5.05Q269.64-6.5 267.24-6.7L267.24-6.7 257.79-6.7Q256.74-6.7 256.19-6.5 255.64-6.3 255.29-5.6L255.29-5.6 253.34-1.55Q252.84-0.65 252.24-0.33 251.64 0 250.49 0L250.49 0 245.99 0Q244.04 0 243.89-1.4L243.89-1.4Q243.84-1.6 243.84-1.8L243.84-1.8Q243.84-2.95 244.59-4L244.59-4 260.24-31.6Q262.49-35.5 267.54-35.5L267.54-35.5 271.54-35.5Q275.54-35.5 277.19-32.65ZM260.99-19.85L260.99-19.85 258.69-15.3Q258.49-14.85 258.49-14.5L258.49-14.5Q258.49-13.2 259.74-13.2L259.74-13.2 264.29-13.2Q265.34-13.2 265.74-13.73 266.14-14.25 266.14-14.65 266.14-15.05 265.99-15.45L265.99-15.45 264.09-19.75Q263.49-21.05 262.54-21.05 261.59-21.05 260.99-19.85Z" opacity="1" transform="matrix(1,0,0,1,0,0)" fill="#ffffff" class="wordmark-text-0" data-fill-palette-color="primary" id="text-0"></path></svg></g></svg></g><g transform="matrix(1,0,0,1,0,35.13022555191257)"><svg viewBox="0 0 131.51039999999998 25.33313385826771" height="25.33313385826771" width="131.51039999999998"><g transform="matrix(1,0,0,1,0,0)"><svg width="131.51039999999998" viewBox="-0.10000000149011612 -33.45000076293945 173.62001037597656 33.45000076293945" height="25.33313385826771" data-palette-color="#ffffff"><path d="M11.21-28.34L12.79-28.71 19.14-28.71 21.66-28.3 22.14-30.91 19.31-31.25 12.74-31.25 10.25-30.86 8.69-29.3 8.35-27.25 8.35-14.99 8.69-12.89 10.3-11.35 12.74-11.06 18.85-11.06 21.31-11.35 22.9-12.89 23.24-14.99 23.24-21.41 16.16-21.41 16.16-18.8 20.65-18.8 20.65-15.36Q20.53-14.97 20.48-14.62 20.43-14.28 20.31-13.89L20.31-13.89 18.7-13.65 12.79-13.65 11.3-13.89 10.96-15.45 10.96-27 11.21-28.34ZM10.69-33.45L18.21-33.45Q20.68-33.45 22.68-32.71 24.68-31.98 26.09-30.71 27.49-29.44 28.25-27.75 29-26.05 29-24.15L29-24.15 29-9.3Q29-7.4 28.25-5.7 27.49-4 26.09-2.73 24.68-1.46 22.68-0.73 20.68 0 18.21 0L18.21 0 10.69 0Q8.23 0 6.23-0.73 4.22-1.46 2.82-2.73 1.42-4 0.66-5.7-0.1-7.4-0.1-9.3L-0.1-9.3-0.1-24.15Q-0.1-26.05 0.66-27.75 1.42-29.44 2.82-30.71 4.22-31.98 6.23-32.71 8.23-33.45 10.69-33.45L10.69-33.45ZM47.7-11.35L50.12-11.08 50.12-16.65 50.12-27.34 50.12-29.39 48.46-30.96 46.02-31.25 40.45-31.25 37.6-30.91 38.21-28.25 40.5-28.71 45.94-28.71 47.41-28.39 47.75-27.1 47.75-21.41 46.02-21.7 40.45-21.7 38.01-21.34 36.45-19.8 36.11-17.8 36.11-14.94 36.45-12.89 38.01-11.35 40.45-11.06 45.8-11.06 47.7-11.35ZM47.75-15.21L47.75-13.89 45.85-13.65 40.6-13.65 39.06-13.89 38.72-15.36 38.72-17.46 38.91-18.85 40.6-19.09 45.9-19.09 47.75-18.9 47.75-15.21ZM39.6-33.45L47.12-33.45Q49.58-33.45 51.58-32.71 53.59-31.98 54.99-30.71 56.39-29.44 57.15-27.75 57.91-26.05 57.91-24.15L57.91-24.15 57.91-9.3Q57.91-7.4 57.15-5.7 56.39-4 54.99-2.73 53.59-1.46 51.58-0.73 49.58 0 47.12 0L47.12 0 39.6 0Q37.13 0 35.13-0.73 33.13-1.46 31.72-2.73 30.32-4 29.56-5.7 28.81-7.4 28.81-9.3L28.81-9.3 28.81-24.15Q28.81-26.05 29.56-27.75 30.32-29.44 31.72-30.71 33.13-31.98 35.13-32.71 37.13-33.45 39.6-33.45L39.6-33.45ZM68.5-33.45L76.02-33.45Q78.49-33.45 80.49-32.71 82.49-31.98 83.89-30.71 85.3-29.44 86.05-27.75 86.81-26.05 86.81-24.15L86.81-24.15 86.81-9.3Q86.81-7.4 86.05-5.7 85.3-4 83.89-2.73 82.49-1.46 80.49-0.73 78.49 0 76.02 0L76.02 0 68.5 0Q66.04 0 64.03-0.73 62.03-1.46 60.63-2.73 59.22-4 58.47-5.7 57.71-7.4 57.71-9.3L57.71-9.3 57.71-24.15Q57.71-26.05 58.47-27.75 59.22-29.44 60.63-30.71 62.03-31.98 64.03-32.71 66.04-33.45 68.5-33.45L68.5-33.45ZM73.02-29.17L72.21-30.86 70.87-31.25 67.67-31.25 65.62-30.91 64.06-29.35 64.06-11.06 66.67-11.06 66.67-28.44Q67.01-28.52 67.28-28.54 67.55-28.56 67.87-28.66L67.87-28.66 70.65-28.66Q70.92-28.56 71.17-28.54 71.43-28.52 71.7-28.44L71.7-28.44 71.7-18.09 74.31-18.09 74.31-28.44 75.36-28.66 78.17-28.66Q78.46-28.56 78.75-28.54 79.05-28.52 79.37-28.44L79.37-28.44 79.37-11.06 81.95-11.06 81.95-29.35 80.41-30.91 78.36-31.25 75.17-31.25 73.85-30.86 73.02-29.17ZM101.21-13.65L95.45-13.65 95.45-11.06 109.56-11.06 109.56-13.65 103.83-13.65 103.83-28.66 109.56-28.66 109.56-31.25 95.45-31.25 95.45-28.66 101.21-28.66 101.21-13.65ZM97.4-33.45L104.92-33.45Q107.39-33.45 109.39-32.71 111.39-31.98 112.8-30.71 114.2-29.44 114.96-27.75 115.72-26.05 115.72-24.15L115.72-24.15 115.72-9.3Q115.72-7.4 114.96-5.7 114.2-4 112.8-2.73 111.39-1.46 109.39-0.73 107.39 0 104.92 0L104.92 0 97.4 0Q94.94 0 92.94-0.73 90.93-1.46 89.53-2.73 88.13-4 87.37-5.7 86.61-7.4 86.61-9.3L86.61-9.3 86.61-24.15Q86.61-26.05 87.37-27.75 88.13-29.44 89.53-30.71 90.93-31.98 92.94-32.71 94.94-33.45 97.4-33.45L97.4-33.45ZM138.37-11.06L138.37-27.34 138.03-29.39 136.46-30.96 133.97-31.25 127.87-31.25 123.48-30.64 123.48-11.06 126.06-11.06 126.06-28.39 127.97-28.71 133.83-28.71 135.51-28.44 135.76-27 135.76-11.06 138.37-11.06ZM126.31-33.45L133.83-33.45Q136.29-33.45 138.3-32.71 140.3-31.98 141.7-30.71 143.11-29.44 143.86-27.75 144.62-26.05 144.62-24.15L144.62-24.15 144.62-9.3Q144.62-7.4 143.86-5.7 143.11-4 141.7-2.73 140.3-1.46 138.3-0.73 136.29 0 133.83 0L133.83 0 126.31 0Q123.84 0 121.84-0.73 119.84-1.46 118.43-2.73 117.03-4 116.27-5.7 115.52-7.4 115.52-9.3L115.52-9.3 115.52-24.15Q115.52-26.05 116.27-27.75 117.03-29.44 118.43-30.71 119.84-31.98 121.84-32.71 123.84-33.45 126.31-33.45L126.31-33.45ZM155.72-28.34L157.31-28.71 163.66-28.71 166.17-28.3 166.66-30.91 163.83-31.25 157.26-31.25 154.77-30.86 153.21-29.3 152.87-27.25 152.87-14.99 153.21-12.89 154.82-11.35 157.26-11.06 163.37-11.06 165.83-11.35 167.42-12.89 167.76-14.99 167.76-21.41 160.68-21.41 160.68-18.8 165.17-18.8 165.17-15.36Q165.05-14.97 165-14.62 164.95-14.28 164.83-13.89L164.83-13.89 163.22-13.65 157.31-13.65 155.82-13.89 155.48-15.45 155.48-27 155.72-28.34ZM155.21-33.45L162.73-33.45Q165.2-33.45 167.2-32.71 169.2-31.98 170.61-30.71 172.01-29.44 172.77-27.75 173.52-26.05 173.52-24.15L173.52-24.15 173.52-9.3Q173.52-7.4 172.77-5.7 172.01-4 170.61-2.73 169.2-1.46 167.2-0.73 165.2 0 162.73 0L162.73 0 155.21 0Q152.75 0 150.74-0.73 148.74-1.46 147.34-2.73 145.93-4 145.18-5.7 144.42-7.4 144.42-9.3L144.42-9.3 144.42-24.15Q144.42-26.05 145.18-27.75 145.93-29.44 147.34-30.71 148.74-31.98 150.74-32.71 152.75-33.45 155.21-33.45L155.21-33.45Z" opacity="1" transform="matrix(1,0,0,1,0,0)" fill="#ffffff" class="slogan-text-1" data-fill-palette-color="secondary" id="text-1"></path></svg></g></svg></g></svg></g></svg></g><g><svg viewBox="0 0 55.31941270156431 83.56036270486915" height="83.56036270486915" width="55.31941270156431"><g><svg xmlns="http://www.w3.org/2000/svg" xmlns:xlink="http://www.w3.org/1999/xlink" version="1.1" x="0" y="0" viewBox="24.761856079101562 5 59.5826416015625 90" enable-background="new 0 0 100 100" xml:space="preserve" height="83.56036270486915" width="55.31941270156431" class="icon-icon-0" data-fill-palette-color="accent" id="icon-0"></svg></g></svg></g></svg></g></svg></g></svg></g><defs></defs><mask id="f4150273-46aa-4e55-857c-a73310db356e"><g id="SvgjsG1075"><svg viewBox="0 0 320 360" height="360" width="320"><g><svg></svg></g><g><svg viewBox="0 0 320 360" height="360" width="320"><g></g><g transform="matrix(1,0,0,1,48,148.30776189559515)"><svg viewBox="0 0 224 63.384476208809694" height="63.384476208809694" width="224"><g><svg viewBox="0 0 295.30134767113805 83.56036270486915" height="63.384476208809694" width="224"><g></g><g transform="matrix(1,0,0,1,71.30134767113809,11.548501647344434)"><svg viewBox="0 0 224 60.46335941018028" height="60.46335941018028" width="224"><g id="SvgjsG1073"><svg viewBox="0 0 224 60.46335941018028" height="60.46335941018028" width="224" id="SvgjsSvg1072"><g><svg viewBox="0 0 224 28.420765027322403" height="28.420765027322403" width="224"><g transform="matrix(1,0,0,1,0,0)"><svg width="224" viewBox="1.75 -36.150001525878906 292.7900085449219 37.150001525878906" height="28.420765027322403" data-palette-color="#ffffff"></svg></g></svg></g><g transform="matrix(1,0,0,1,0,35.13022555191257)"><svg viewBox="0 0 131.51039999999998 25.33313385826771" height="25.33313385826771" width="131.51039999999998"><g transform="matrix(1,0,0,1,0,0)"><svg width="131.51039999999998" viewBox="-0.10000000149011612 -33.45000076293945 173.62001037597656 33.45000076293945" height="25.33313385826771" data-palette-color="#ffffff"></svg></g></svg></g></svg></g></svg></g><g><svg viewBox="0 0 55.31941270156431 83.56036270486915" height="83.56036270486915" width="55.31941270156431"><g><svg xmlns="http://www.w3.org/2000/svg" xmlns:xlink="http://www.w3.org/1999/xlink" version="1.1" x="0" y="0" viewBox="24.761856079101562 5 59.5826416015625 90" enable-background="new 0 0 100 100" xml:space="preserve" height="83.56036270486915" width="55.31941270156431" class="icon-icon-0" data-fill-palette-color="accent" id="SvgjsSvg1069"><g fill="white"><path d="M73.76 35.603C86.875 48 91.5 66.25 65.633 82.379c3.64-4.928 5.654-9.794 6.096-14.669 0.951-10.516-5.606-19.072-12.835-26.752C48.298 29.7 47.51 18.84 56.413 6.782 54.578 22.641 64.6 26.944 73.76 35.603zM45.288 93.716c6.184-13.053 7.276-20.302-8.197-34.939-4.204-3.977-7.451-8.029-9.71-12.086-2.881 6.435-5.164 20.081 3.244 27.935C36.312 79.938 44.125 83.125 45.288 93.716zM56.709 43.014C48.183 33.954 41.999 21.253 54 5 21.497 17.692 19.625 38.125 39.151 56.597 55.603 72.158 54.75 80.75 48 95 79.875 71.5 68.709 55.764 56.709 43.014z" fill="white"></path></g><g display="none" fill="white"><path display="inline" d="M54 5C16.75 17.5 14.875 56.5 26.75 70.762c10.558 12.68 15.407 7.949 19.675 20.824" fill="white"></path><line display="inline" x1="56.988" y1="5.261" x2="45.528" y2="136.262" fill="white"></line><line display="inline" x1="54.131" y1="3.502" x2="42.67" y2="134.502" fill="white"></line><path display="inline" d="M42.875 76" fill="white"></path></g></svg></g></svg></g></svg></g></svg></g></svg></g><defs></defs></svg></g></mask><linearGradient x1="0" x2="1" y1="0.5" y2="0.5" id="686a6207-c330-4da2-a78f-4ff2fe3072f4"><stop stop-color="#f00b51" offset="0"></stop><stop stop-color="#730062" offset="1"></stop></linearGradient><rect width="320.00006103515625" height="360" fill="url(#686a6207-c330-4da2-a78f-4ff2fe3072f4)" mask="url(#f4150273-46aa-4e55-857c-a73310db356e)" data-fill-palette-color="accent"></rect></svg><rect width="320" height="360" fill="none" stroke="none" visibility="hidden"></rect></g></svg></g></svg>